<svg width="494" height="81" viewBox="0 0 494 81" fill="none" xmlns="http://www.w3.org/2000/svg">
<rect x="6" y="13" width="18" height="56" fill="#FE4918"/>
<path d="M63.984 30.632C63.984 31.7413 63.8347 32.8507 63.536 33.96C63.28 35.0693 62.832 36.0933 62.192 37.032C61.552 37.928 60.72 38.7387 59.696 39.464C58.672 40.1467 57.4347 40.6587 55.984 41V41.384C57.264 41.5973 58.48 41.96 59.632 42.472C60.784 42.984 61.7867 43.688 62.64 44.584C63.4933 45.48 64.1547 46.568 64.624 47.848C65.136 49.128 65.392 50.6427 65.392 52.392C65.392 54.696 64.9013 56.7013 63.92 58.408C62.9387 60.072 61.616 61.4373 59.952 62.504C58.3307 63.5707 56.4747 64.36 54.384 64.872C52.2933 65.384 50.1387 65.64 47.92 65.64C47.1947 65.64 46.256 65.64 45.104 65.64C43.9947 65.64 42.7787 65.5973 41.456 65.512C40.176 65.4693 38.8533 65.384 37.488 65.256C36.1653 65.128 34.9493 64.936 33.84 64.68V20.52C34.6507 20.392 35.568 20.264 36.592 20.136C37.6587 20.008 38.7893 19.9013 39.984 19.816C41.1787 19.7307 42.3947 19.6667 43.632 19.624C44.912 19.5813 46.1707 19.56 47.408 19.56C49.4987 19.56 51.5253 19.7307 53.488 20.072C55.4933 20.3707 57.264 20.9253 58.8 21.736C60.3787 22.5467 61.6373 23.6773 62.576 25.128C63.5147 26.5787 63.984 28.4133 63.984 30.632ZM47.984 58.408C49.0507 58.408 50.0747 58.28 51.056 58.024C52.08 57.768 52.976 57.384 53.744 56.872C54.512 56.3173 55.1307 55.6347 55.6 54.824C56.0693 54.0133 56.304 53.0533 56.304 51.944C56.304 50.536 56.0267 49.4267 55.472 48.616C54.9173 47.8053 54.192 47.1867 53.296 46.76C52.4 46.2907 51.3973 45.992 50.288 45.864C49.1787 45.736 48.0693 45.672 46.96 45.672H42.288V58.024C42.5013 58.1093 42.8427 58.1733 43.312 58.216C43.7813 58.2587 44.272 58.3013 44.784 58.344C45.3387 58.344 45.8933 58.3653 46.448 58.408C47.0453 58.408 47.5573 58.408 47.984 58.408ZM45.104 39.016C45.7013 39.016 46.384 38.9947 47.152 38.952C47.9627 38.9093 48.624 38.8453 49.136 38.76C50.7573 38.248 52.144 37.48 53.296 36.456C54.4907 35.432 55.088 34.088 55.088 32.424C55.088 31.3147 54.8747 30.3973 54.448 29.672C54.0213 28.9467 53.4453 28.3707 52.72 27.944C52.0373 27.5173 51.248 27.2187 50.352 27.048C49.456 26.8773 48.5173 26.792 47.536 26.792C46.4267 26.792 45.4027 26.8133 44.464 26.856C43.5253 26.8987 42.8 26.9627 42.288 27.048V39.016H45.104ZM90.9805 52.968C90.9805 51.6027 90.4685 50.4933 89.4445 49.64C88.4632 48.7867 87.2045 48.0187 85.6685 47.336C84.1752 46.6107 82.5325 45.8853 80.7405 45.16C78.9912 44.392 77.3485 43.4747 75.8125 42.408C74.3192 41.2987 73.0605 39.9333 72.0365 38.312C71.0552 36.6907 70.5645 34.6213 70.5645 32.104C70.5645 29.928 70.9272 28.0507 71.6525 26.472C72.3778 24.8507 73.4018 23.5067 74.7245 22.44C76.0898 21.3733 77.6898 20.584 79.5245 20.072C81.3592 19.56 83.4072 19.304 85.6685 19.304C88.2712 19.304 90.7245 19.5387 93.0285 20.008C95.3325 20.4347 97.2312 21.0747 98.7245 21.928L95.9725 29.288C95.0338 28.6907 93.6258 28.1573 91.7485 27.688C89.8712 27.176 87.8445 26.92 85.6685 26.92C83.6205 26.92 82.0418 27.3253 80.9325 28.136C79.8658 28.9467 79.3325 30.0347 79.3325 31.4C79.3325 32.68 79.8232 33.7467 80.8045 34.6C81.8285 35.4533 83.0872 36.2427 84.5805 36.968C86.1165 37.6933 87.7592 38.44 89.5085 39.208C91.3005 39.976 92.9432 40.9147 94.4365 42.024C95.9725 43.0907 97.2312 44.4347 98.2125 46.056C99.2365 47.6347 99.7485 49.6187 99.7485 52.008C99.7485 54.3973 99.3432 56.4667 98.5325 58.216C97.7645 59.9227 96.6552 61.352 95.2045 62.504C93.7965 63.656 92.0685 64.5093 90.0205 65.064C88.0152 65.6187 85.7965 65.896 83.3645 65.896C80.1645 65.896 77.3485 65.5973 74.9165 65C72.4845 64.4027 70.6925 63.8053 69.5405 63.208L72.3565 55.72C72.8258 55.976 73.4232 56.2533 74.1485 56.552C74.9165 56.8507 75.7698 57.128 76.7085 57.384C77.6472 57.64 78.6285 57.8533 79.6525 58.024C80.7192 58.1947 81.8072 58.28 82.9165 58.28C85.5192 58.28 87.5032 57.8533 88.8685 57C90.2765 56.104 90.9805 54.76 90.9805 52.968ZM127.67 55.08H113.91L110.518 65H101.75L117.878 19.88H124.342L140.47 65H131.254L127.67 55.08ZM116.15 48.04H125.75L122.422 38.056L121.078 31.016H120.758L119.414 38.12L116.15 48.04ZM163.668 52.968C163.668 51.6027 163.156 50.4933 162.132 49.64C161.151 48.7867 159.892 48.0187 158.356 47.336C156.863 46.6107 155.22 45.8853 153.428 45.16C151.679 44.392 150.036 43.4747 148.5 42.408C147.007 41.2987 145.748 39.9333 144.724 38.312C143.743 36.6907 143.252 34.6213 143.252 32.104C143.252 29.928 143.615 28.0507 144.34 26.472C145.065 24.8507 146.089 23.5067 147.412 22.44C148.777 21.3733 150.377 20.584 152.212 20.072C154.047 19.56 156.095 19.304 158.356 19.304C160.959 19.304 163.412 19.5387 165.716 20.008C168.02 20.4347 169.919 21.0747 171.412 21.928L168.66 29.288C167.721 28.6907 166.313 28.1573 164.436 27.688C162.559 27.176 160.532 26.92 158.356 26.92C156.308 26.92 154.729 27.3253 153.62 28.136C152.553 28.9467 152.02 30.0347 152.02 31.4C152.02 32.68 152.511 33.7467 153.492 34.6C154.516 35.4533 155.775 36.2427 157.268 36.968C158.804 37.6933 160.447 38.44 162.196 39.208C163.988 39.976 165.631 40.9147 167.124 42.024C168.66 43.0907 169.919 44.4347 170.9 46.056C171.924 47.6347 172.436 49.6187 172.436 52.008C172.436 54.3973 172.031 56.4667 171.22 58.216C170.452 59.9227 169.343 61.352 167.892 62.504C166.484 63.656 164.756 64.5093 162.708 65.064C160.703 65.6187 158.484 65.896 156.052 65.896C152.852 65.896 150.036 65.5973 147.604 65C145.172 64.4027 143.38 63.8053 142.228 63.208L145.044 55.72C145.513 55.976 146.111 56.2533 146.836 56.552C147.604 56.8507 148.457 57.128 149.396 57.384C150.335 57.64 151.316 57.8533 152.34 58.024C153.407 58.1947 154.495 58.28 155.604 58.28C158.207 58.28 160.191 57.8533 161.556 57C162.964 56.104 163.668 54.76 163.668 52.968ZM189.926 45.224L190.758 53.16H191.014L191.91 45.096L199.718 20.2H205.478L213.158 45.224L214.054 53.16H214.31L215.27 45.096L220.71 20.2H229.606L217.254 65.32H211.366L203.366 40.424L202.278 33.576H201.958L200.87 40.488L192.934 65.32H186.726L174.438 20.2H183.974L189.926 45.224ZM233.465 20.2H260.025V28.008H242.233V38.44H258.425V46.248H242.233V57.192H260.345V65H233.465V20.2ZM297.047 30.632C297.047 31.7413 296.897 32.8507 296.599 33.96C296.343 35.0693 295.895 36.0933 295.255 37.032C294.615 37.928 293.783 38.7387 292.759 39.464C291.735 40.1467 290.497 40.6587 289.047 41V41.384C290.327 41.5973 291.543 41.96 292.695 42.472C293.847 42.984 294.849 43.688 295.703 44.584C296.556 45.48 297.217 46.568 297.687 47.848C298.199 49.128 298.455 50.6427 298.455 52.392C298.455 54.696 297.964 56.7013 296.983 58.408C296.001 60.072 294.679 61.4373 293.015 62.504C291.393 63.5707 289.537 64.36 287.447 64.872C285.356 65.384 283.201 65.64 280.983 65.64C280.257 65.64 279.319 65.64 278.167 65.64C277.057 65.64 275.841 65.5973 274.519 65.512C273.239 65.4693 271.916 65.384 270.551 65.256C269.228 65.128 268.012 64.936 266.903 64.68V20.52C267.713 20.392 268.631 20.264 269.655 20.136C270.721 20.008 271.852 19.9013 273.047 19.816C274.241 19.7307 275.457 19.6667 276.695 19.624C277.975 19.5813 279.233 19.56 280.471 19.56C282.561 19.56 284.588 19.7307 286.551 20.072C288.556 20.3707 290.327 20.9253 291.863 21.736C293.441 22.5467 294.7 23.6773 295.639 25.128C296.577 26.5787 297.047 28.4133 297.047 30.632ZM281.047 58.408C282.113 58.408 283.137 58.28 284.119 58.024C285.143 57.768 286.039 57.384 286.807 56.872C287.575 56.3173 288.193 55.6347 288.663 54.824C289.132 54.0133 289.367 53.0533 289.367 51.944C289.367 50.536 289.089 49.4267 288.535 48.616C287.98 47.8053 287.255 47.1867 286.359 46.76C285.463 46.2907 284.46 45.992 283.351 45.864C282.241 45.736 281.132 45.672 280.023 45.672H275.351V58.024C275.564 58.1093 275.905 58.1733 276.375 58.216C276.844 58.2587 277.335 58.3013 277.847 58.344C278.401 58.344 278.956 58.3653 279.51 58.408C280.108 58.408 280.62 58.408 281.047 58.408ZM278.167 39.016C278.764 39.016 279.447 38.9947 280.215 38.952C281.025 38.9093 281.687 38.8453 282.199 38.76C283.82 38.248 285.207 37.48 286.359 36.456C287.553 35.432 288.151 34.088 288.151 32.424C288.151 31.3147 287.937 30.3973 287.511 29.672C287.084 28.9467 286.508 28.3707 285.783 27.944C285.1 27.5173 284.311 27.2187 283.415 27.048C282.519 26.8773 281.58 26.792 280.599 26.792C279.489 26.792 278.465 26.8133 277.527 26.856C276.588 26.8987 275.863 26.9627 275.351 27.048V39.016H278.167ZM335.051 63.144C333.686 64.1253 331.936 64.8293 329.803 65.256C327.712 65.6827 325.558 65.896 323.339 65.896C320.651 65.896 318.091 65.4907 315.659 64.68C313.27 63.8267 311.158 62.4827 309.323 60.648C307.488 58.7707 306.016 56.36 304.907 53.416C303.84 50.4293 303.307 46.824 303.307 42.6C303.307 38.2053 303.904 34.536 305.099 31.592C306.336 28.6053 307.915 26.216 309.835 24.424C311.798 22.5893 313.974 21.288 316.363 20.52C318.752 19.7093 321.142 19.304 323.531 19.304C326.091 19.304 328.246 19.4747 329.995 19.816C331.787 20.1573 333.259 20.5627 334.411 21.032L332.683 28.456C331.702 27.9867 330.528 27.6453 329.163 27.432C327.84 27.2187 326.219 27.112 324.299 27.112C320.758 27.112 317.899 28.3707 315.723 30.888C313.59 33.4053 312.523 37.3093 312.523 42.6C312.523 44.904 312.779 47.016 313.291 48.936C313.803 50.8133 314.571 52.4347 315.595 53.8C316.662 55.1227 317.963 56.168 319.499 56.936C321.078 57.6613 322.891 58.024 324.939 58.024C326.859 58.024 328.48 57.832 329.803 57.448C331.126 57.064 332.278 56.5733 333.259 55.976L335.051 63.144ZM359.733 55.08H345.973L342.581 65H333.812L349.941 19.88H356.405L372.533 65H363.317L359.733 55.08ZM348.213 48.04H357.813L354.485 38.056L353.141 31.016H352.821L351.477 38.12L348.213 48.04ZM411.155 41.768L412.115 32.872H411.731L408.979 40.04L399.443 56.744H396.627L386.579 39.976L383.763 32.872H383.443L384.723 41.704V65H376.403V20.2H384.403L396.371 40.68L398.483 45.8H398.739L400.659 40.552L411.987 20.2H419.923V65H411.155V41.768ZM427.59 20.648C429.382 20.3067 431.345 20.0507 433.478 19.88C435.654 19.6667 437.809 19.56 439.942 19.56C442.161 19.56 444.379 19.752 446.598 20.136C448.859 20.4773 450.886 21.2027 452.678 22.312C454.47 23.3787 455.921 24.8933 457.03 26.856C458.182 28.776 458.758 31.2933 458.758 34.408C458.758 37.224 458.267 39.6133 457.286 41.576C456.305 43.496 455.003 45.0747 453.382 46.312C451.761 47.5493 449.905 48.4453 447.814 49C445.766 49.5547 443.633 49.832 441.414 49.832C441.201 49.832 440.859 49.832 440.39 49.832C439.921 49.832 439.43 49.832 438.918 49.832C438.406 49.7893 437.894 49.7467 437.382 49.704C436.913 49.6613 436.571 49.6187 436.358 49.576V65H427.59V20.648ZM440.646 27.112C439.793 27.112 438.982 27.1547 438.214 27.24C437.446 27.2827 436.827 27.3467 436.358 27.432V41.96C436.529 42.0027 436.785 42.0453 437.126 42.088C437.467 42.1307 437.83 42.1733 438.214 42.216C438.598 42.216 438.961 42.216 439.302 42.216C439.686 42.216 439.963 42.216 440.134 42.216C441.286 42.216 442.417 42.1093 443.526 41.896C444.678 41.6827 445.702 41.2987 446.598 40.744C447.494 40.1467 448.198 39.336 448.71 38.312C449.265 37.288 449.542 35.944 449.542 34.28C449.542 32.872 449.286 31.72 448.774 30.824C448.262 29.8853 447.579 29.1387 446.726 28.584C445.915 28.0293 444.977 27.6453 443.91 27.432C442.843 27.2187 441.755 27.112 440.646 27.112Z" fill="white"/>
</svg>
